<svg width="91" height="35" viewBox="0 0 91 35" fill="none" xmlns="http://www.w3.org/2000/svg">
<path d="M11.0526 12.8947C4.95526 12.8947 0 17.85 0 23.9474C0 30.0447 4.95526 35 11.0526 35C17.15 35 22.1053 30.0447 22.1053 23.9474C22.1053 17.85 17.15 12.8947 11.0526 12.8947ZM11.0526 13.8158C16.6526 13.8158 21.1842 18.3474 21.1842 23.9474C21.1842 29.5474 16.6526 34.0789 11.0526 34.0789C5.45263 34.0789 0.921053 29.5474 0.921053 23.9474C0.921053 18.3474 5.45263 13.8158 11.0526 13.8158Z" fill="black"/>
<path d="M27.6317 12.8947C21.5344 12.8947 16.5791 17.85 16.5791 23.9474C16.5791 30.0447 21.5344 35 27.6317 35C33.7291 35 38.6844 30.0447 38.6844 23.9474C38.6844 17.85 33.7291 12.8947 27.6317 12.8947ZM27.6317 13.8158C33.2317 13.8158 37.7633 18.3474 37.7633 23.9474C37.7633 29.5474 33.2317 34.0789 27.6317 34.0789C22.0317 34.0789 17.5002 29.5474 17.5002 23.9474C17.5002 18.3474 22.0317 13.8158 27.6317 13.8158Z" fill="black"/>
<path d="M19.3422 0C13.2448 0 8.28955 4.95526 8.28955 11.0526C8.28955 17.15 13.2448 22.1053 19.3422 22.1053C25.4396 22.1053 30.3948 17.15 30.3948 11.0526C30.3948 4.95526 25.4396 0 19.3422 0ZM19.3422 0.921053C24.9422 0.921053 29.4738 5.45263 29.4738 11.0526C29.4738 16.6526 24.9422 21.1842 19.3422 21.1842C13.7422 21.1842 9.2106 16.6526 9.2106 11.0526C9.2106 5.45263 13.7422 0.921053 19.3422 0.921053Z" fill="black"/>
<path d="M45.688 16.096C44.8453 16.096 44.0667 15.9573 43.352 15.68C42.6373 15.392 42.0187 14.992 41.496 14.48C40.9733 13.968 40.5627 13.3653 40.264 12.672C39.976 11.9787 39.832 11.2213 39.832 10.4C39.832 9.57867 39.976 8.82133 40.264 8.128C40.5627 7.43467 40.9733 6.832 41.496 6.32C42.0293 5.808 42.6533 5.41333 43.368 5.136C44.0827 4.848 44.8613 4.704 45.704 4.704C46.5147 4.704 47.2773 4.84267 47.992 5.12C48.7067 5.38667 49.3093 5.792 49.8 6.336L49.048 7.088C48.5893 6.61867 48.0827 6.28267 47.528 6.08C46.9733 5.86667 46.376 5.76 45.736 5.76C45.064 5.76 44.44 5.87733 43.864 6.112C43.288 6.336 42.7867 6.66133 42.36 7.088C41.9333 7.504 41.5973 7.99467 41.352 8.56C41.1173 9.11467 41 9.728 41 10.4C41 11.072 41.1173 11.6907 41.352 12.256C41.5973 12.8107 41.9333 13.3013 42.36 13.728C42.7867 14.144 43.288 14.4693 43.864 14.704C44.44 14.928 45.064 15.04 45.736 15.04C46.376 15.04 46.9733 14.9333 47.528 14.72C48.0827 14.5067 48.5893 14.1653 49.048 13.696L49.8 14.448C49.3093 14.992 48.7067 15.4027 47.992 15.68C47.2773 15.9573 46.5093 16.096 45.688 16.096ZM55.133 16.08C54.3223 16.08 53.5917 15.8987 52.941 15.536C52.301 15.1627 51.7943 14.656 51.421 14.016C51.0477 13.3653 50.861 12.624 50.861 11.792C50.861 10.9493 51.0477 10.208 51.421 9.568C51.7943 8.928 52.301 8.42667 52.941 8.064C53.581 7.70133 54.3117 7.52 55.133 7.52C55.965 7.52 56.701 7.70133 57.341 8.064C57.9917 8.42667 58.4983 8.928 58.861 9.568C59.2343 10.208 59.421 10.9493 59.421 11.792C59.421 12.624 59.2343 13.3653 58.861 14.016C58.4983 14.656 57.9917 15.1627 57.341 15.536C56.6903 15.8987 55.9543 16.08 55.133 16.08ZM55.133 15.072C55.741 15.072 56.2797 14.9387 56.749 14.672C57.2183 14.3947 57.5863 14.0107 57.853 13.52C58.1303 13.0187 58.269 12.4427 58.269 11.792C58.269 11.1307 58.1303 10.5547 57.853 10.064C57.5863 9.57333 57.2183 9.19467 56.749 8.928C56.2797 8.65067 55.7463 8.512 55.149 8.512C54.5517 8.512 54.0183 8.65067 53.549 8.928C53.0797 9.19467 52.7063 9.57333 52.429 10.064C52.1517 10.5547 52.013 11.1307 52.013 11.792C52.013 12.4427 52.1517 13.0187 52.429 13.52C52.7063 14.0107 53.0797 14.3947 53.549 14.672C54.0183 14.9387 54.5463 15.072 55.133 15.072ZM61.7403 16V4.128H62.8763V16H61.7403ZM69.4611 16.08C68.6505 16.08 67.9198 15.8987 67.2691 15.536C66.6291 15.1627 66.1225 14.656 65.7491 14.016C65.3758 13.3653 65.1891 12.624 65.1891 11.792C65.1891 10.9493 65.3758 10.208 65.7491 9.568C66.1225 8.928 66.6291 8.42667 67.2691 8.064C67.9091 7.70133 68.6398 7.52 69.4611 7.52C70.2931 7.52 71.0291 7.70133 71.6691 8.064C72.3198 8.42667 72.8265 8.928 73.1891 9.568C73.5625 10.208 73.7491 10.9493 73.7491 11.792C73.7491 12.624 73.5625 13.3653 73.1891 14.016C72.8265 14.656 72.3198 15.1627 71.6691 15.536C71.0185 15.8987 70.2825 16.08 69.4611 16.08ZM69.4611 15.072C70.0691 15.072 70.6078 14.9387 71.0771 14.672C71.5465 14.3947 71.9145 14.0107 72.1811 13.52C72.4585 13.0187 72.5971 12.4427 72.5971 11.792C72.5971 11.1307 72.4585 10.5547 72.1811 10.064C71.9145 9.57333 71.5465 9.19467 71.0771 8.928C70.6078 8.65067 70.0745 8.512 69.4771 8.512C68.8798 8.512 68.3465 8.65067 67.8771 8.928C67.4078 9.19467 67.0345 9.57333 66.7571 10.064C66.4798 10.5547 66.3411 11.1307 66.3411 11.792C66.3411 12.4427 66.4798 13.0187 66.7571 13.52C67.0345 14.0107 67.4078 14.3947 67.8771 14.672C68.3465 14.9387 68.8745 15.072 69.4611 15.072ZM76.0684 16V7.6H77.1564V9.888L77.0444 9.488C77.279 8.848 77.6737 8.36267 78.2284 8.032C78.783 7.69067 79.471 7.52 80.2924 7.52V8.624C80.2497 8.624 80.207 8.624 80.1644 8.624C80.1217 8.61333 80.079 8.608 80.0364 8.608C79.151 8.608 78.4577 8.88 77.9564 9.424C77.455 9.95733 77.2044 10.72 77.2044 11.712V16H76.0684Z" fill="black"/>
<path d="M58.688 32.096C57.8453 32.096 57.0667 31.9573 56.352 31.68C55.6373 31.392 55.0187 30.992 54.496 30.48C53.9733 29.968 53.5627 29.3653 53.264 28.672C52.976 27.9787 52.832 27.2213 52.832 26.4C52.832 25.5787 52.976 24.8213 53.264 24.128C53.5627 23.4347 53.9733 22.832 54.496 22.32C55.0293 21.808 55.6533 21.4133 56.368 21.136C57.0827 20.848 57.8613 20.704 58.704 20.704C59.5147 20.704 60.2773 20.8427 60.992 21.12C61.7067 21.3867 62.3093 21.792 62.8 22.336L62.048 23.088C61.5893 22.6187 61.0827 22.2827 60.528 22.08C59.9733 21.8667 59.376 21.76 58.736 21.76C58.064 21.76 57.44 21.8773 56.864 22.112C56.288 22.336 55.7867 22.6613 55.36 23.088C54.9333 23.504 54.5973 23.9947 54.352 24.56C54.1173 25.1147 54 25.728 54 26.4C54 27.072 54.1173 27.6907 54.352 28.256C54.5973 28.8107 54.9333 29.3013 55.36 29.728C55.7867 30.144 56.288 30.4693 56.864 30.704C57.44 30.928 58.064 31.04 58.736 31.04C59.376 31.04 59.9733 30.9333 60.528 30.72C61.0827 30.5067 61.5893 30.1653 62.048 29.696L62.8 30.448C62.3093 30.992 61.7067 31.4027 60.992 31.68C60.2773 31.9573 59.5093 32.096 58.688 32.096ZM65.084 32V23.6H66.172V25.888L66.06 25.488C66.2947 24.848 66.6893 24.3627 67.244 24.032C67.7987 23.6907 68.4867 23.52 69.308 23.52V24.624C69.2653 24.624 69.2227 24.624 69.18 24.624C69.1373 24.6133 69.0947 24.608 69.052 24.608C68.1667 24.608 67.4733 24.88 66.972 25.424C66.4707 25.9573 66.22 26.72 66.22 27.712V32H65.084ZM76.0199 32V30.144L75.9719 29.84V26.736C75.9719 26.0213 75.7692 25.472 75.3639 25.088C74.9692 24.704 74.3772 24.512 73.5879 24.512C73.0439 24.512 72.5265 24.6027 72.0359 24.784C71.5452 24.9653 71.1292 25.2053 70.7879 25.504L70.2759 24.656C70.7025 24.2933 71.2145 24.016 71.8119 23.824C72.4092 23.6213 73.0385 23.52 73.6999 23.52C74.7879 23.52 75.6252 23.792 76.2119 24.336C76.8092 24.8693 77.1079 25.6853 77.1079 26.784V32H76.0199ZM73.1239 32.08C72.4945 32.08 71.9452 31.9787 71.4759 31.776C71.0172 31.5627 70.6652 31.2747 70.4199 30.912C70.1745 30.5387 70.0519 30.112 70.0519 29.632C70.0519 29.1947 70.1532 28.8 70.3559 28.448C70.5692 28.0853 70.9105 27.7973 71.3799 27.584C71.8599 27.36 72.4999 27.248 73.2999 27.248H76.1959V28.096H73.3319C72.5212 28.096 71.9559 28.24 71.6359 28.528C71.3265 28.816 71.1719 29.1733 71.1719 29.6C71.1719 30.08 71.3585 30.464 71.7319 30.752C72.1052 31.04 72.6279 31.184 73.2999 31.184C73.9399 31.184 74.4892 31.04 74.9479 30.752C75.4172 30.4533 75.7585 30.0267 75.9719 29.472L76.2279 30.256C76.0145 30.8107 75.6412 31.2533 75.1079 31.584C74.5852 31.9147 73.9239 32.08 73.1239 32.08ZM80.3854 32V22.544C80.3854 21.7973 80.604 21.1947 81.0414 20.736C81.4787 20.2773 82.108 20.048 82.9294 20.048C83.2494 20.048 83.5587 20.0907 83.8574 20.176C84.156 20.2613 84.4067 20.3947 84.6094 20.576L84.2254 21.424C84.0654 21.2853 83.8787 21.184 83.6654 21.12C83.452 21.0453 83.2227 21.008 82.9774 21.008C82.4974 21.008 82.1294 21.1413 81.8734 21.408C81.6174 21.6747 81.4894 22.0693 81.4894 22.592V23.872L81.5214 24.4V32H80.3854ZM78.8814 24.544V23.6H84.0814V24.544H78.8814ZM88.2713 32.08C87.4819 32.08 86.8739 31.8667 86.4473 31.44C86.0206 31.0133 85.8073 30.4107 85.8073 29.632V21.744H86.9433V29.568C86.9433 30.0587 87.0659 30.4373 87.3113 30.704C87.5673 30.9707 87.9299 31.104 88.3993 31.104C88.9006 31.104 89.3166 30.96 89.6473 30.672L90.0473 31.488C89.8233 31.6907 89.5513 31.84 89.2313 31.936C88.9219 32.032 88.6019 32.08 88.2713 32.08ZM84.3033 24.544V23.6H89.5033V24.544H84.3033Z" fill="black"/>
</svg>
